# xmcd CD database file
#
# Track frame offsets:
#	150
#	12240
#	25851
#	39997
#	54766
#	69827
#	84479
#	93844
#	109163
#	122256
#	136155
#	152569
#
# Disc length: 2222 seconds
#
# Revision: 1
# Processed by: cddbd v1.5.2PL0 Copyright (c) Steve Scherf et al.
# Submitted via: CDex 1.70beta2
#
DISCID=7d08ac0c
DTITLE=Marian McPartland - Plays Music of Leonard Bernstein
DYEAR=1960
DGENRE=Jazz
TTITLE0=It's Love
TTITLE1=Cool
TTITLE2=Lonely Town
TTITLE3=I Can Cook Too
TTITLE4=Tonight
TTITLE5=Somewhere
TTITLE6=Ya Got Me
TTITLE7=A Little Bit In Love
TTITLE8=Lucky To Be Me
TTITLE9=Some Other Time
TTITLE10=I Feel Pretty
TTITLE11=Maria
EXTD=YEAR: 1960
EXTT0=
EXTT1=
EXTT2=
EXTT3=
EXTT4=
EXTT5=
EXTT6=
EXTT7=
EXTT8=
EXTT9=
EXTT10=
EXTT11=
PLAYORDER=
